<svg xmlns="http://www.w3.org/2000/svg" viewBox="0 0 640 900" font-family="system-ui,Segoe UI,sans-serif" font-size="13">
  <defs>
    <marker id="arrow" markerWidth="10" markerHeight="10" refX="9" refY="3" orient="auto">
      <path d="M0,0 L0,6 L9,3 z" fill="#334155"/>
    </marker>
  </defs>
<rect x="24" y="16" rx="8" ry="8" width="592" height="248" fill="#f8fafc" stroke="#64748b" stroke-width="1.2" stroke-dasharray="4 3"/><text x="34" y="34" fill="#334155" font-size="12" font-weight="600">Single Containerfile</text><g><rect x="48" y="44" rx="6" ry="6" width="544" height="36" fill="#dbeafe" stroke="#2563eb" stroke-width="1.5"/><text x="320.0" y="62.0" text-anchor="middle" fill="#0f172a" font-size="12"><tspan x="320.0" dy="0" text-anchor="middle">Linux kernel (/usr/lib/modules)</tspan></text></g><g><rect x="48" y="88" rx="6" ry="6" width="544" height="36" fill="#dbeafe" stroke="#2563eb" stroke-width="1.5"/><text x="320.0" y="106.0" text-anchor="middle" fill="#0f172a" font-size="12"><tspan x="320.0" dy="0" text-anchor="middle">Userspace (systemd, nginx, packages)</tspan></text></g><g><rect x="48" y="132" rx="6" ry="6" width="544" height="36" fill="#dbeafe" stroke="#2563eb" stroke-width="1.5"/><text x="320.0" y="150.0" text-anchor="middle" fill="#0f172a" font-size="12"><tspan x="320.0" dy="0" text-anchor="middle">Apps (Go binaries, systemd units via rootfs)</tspan></text></g><g><rect x="48" y="176" rx="6" ry="6" width="544" height="36" fill="#dbeafe" stroke="#2563eb" stroke-width="1.5"/><text x="320.0" y="194.0" text-anchor="middle" fill="#0f172a" font-size="12"><tspan x="320.0" dy="0" text-anchor="middle">Configs (nginx.conf, sshd, etc. via rootfs)</tspan></text></g><rect x="24" y="280" rx="8" ry="8" width="592" height="88" fill="#f0fdf4" stroke="#64748b" stroke-width="1.2" stroke-dasharray="4 3"/><text x="34" y="298" fill="#334155" font-size="12" font-weight="600">Build Time</text><g><rect x="200" y="312" rx="6" ry="6" width="240" height="44" fill="#bbf7d0" stroke="#16a34a" stroke-width="1.5"/><text x="320.0" y="334.0" text-anchor="middle" fill="#0f172a" font-size="12"><tspan x="320.0" dy="0" text-anchor="middle">OCI Image</tspan></text></g><line x1="320" y1="264" x2="320" y2="312" stroke="#334155" stroke-width="1.5" marker-end="url(#arrow)" /><rect x="24" y="388" rx="8" ry="8" width="592" height="100" fill="#fffbeb" stroke="#64748b" stroke-width="1.2" stroke-dasharray="4 3"/><text x="34" y="406" fill="#334155" font-size="12" font-weight="600">Registry (GHCR)</text><g><ellipse cx="320" cy="452" rx="120" ry="36" fill="#fde68a" stroke="#d97706" stroke-width="1.5"/><text x="320" y="456" text-anchor="middle" fill="#0f172a" font-size="12">GitHub Container Registry</text></g><line x1="320" y1="356" x2="320" y2="416" stroke="#334155" stroke-width="1.5" marker-end="url(#arrow)" /><rect x="24" y="500" rx="8" ry="8" width="592" height="120" fill="#faf5ff" stroke="#64748b" stroke-width="1.2" stroke-dasharray="4 3"/><text x="34" y="518" fill="#334155" font-size="12" font-weight="600">bootc-image-builder</text><g><rect x="80" y="536" rx="6" ry="6" width="200" height="44" fill="#e9d5ff" stroke="#7c3aed" stroke-width="1.5"/><text x="180.0" y="558.0" text-anchor="middle" fill="#0f172a" font-size="12"><tspan x="180.0" dy="0" text-anchor="middle">AMI (AWS)</tspan></text></g><g><rect x="360" y="536" rx="6" ry="6" width="200" height="44" fill="#e9d5ff" stroke="#7c3aed" stroke-width="1.5"/><text x="460.0" y="558.0" text-anchor="middle" fill="#0f172a" font-size="12"><tspan x="460.0" dy="0" text-anchor="middle">VMDK / OVA (VMware)</tspan></text></g><line x1="320" y1="488" x2="320" y2="500" stroke="#334155" stroke-width="1.5" marker-end="url(#arrow)" /><line x1="320" y1="488" x2="180" y2="536" stroke="#334155" stroke-width="1.5" marker-end="url(#arrow)" /><line x1="320" y1="488" x2="460" y2="536" stroke="#334155" stroke-width="1.5" marker-end="url(#arrow)" /><rect x="24" y="636" rx="8" ry="8" width="592" height="248" fill="#fef2f2" stroke="#64748b" stroke-width="1.2" stroke-dasharray="4 3"/><text x="34" y="654" fill="#334155" font-size="12" font-weight="600">Runtime</text><g><rect x="60" y="676" rx="6" ry="6" width="200" height="40" fill="#fecaca" stroke="#dc2626" stroke-width="1.5"/><text x="160.0" y="696.0" text-anchor="middle" fill="#0f172a" font-size="12"><tspan x="160.0" dy="0" text-anchor="middle">EC2 Instance</tspan></text></g><g><rect x="380" y="676" rx="6" ry="6" width="200" height="40" fill="#fecaca" stroke="#dc2626" stroke-width="1.5"/><text x="480.0" y="696.0" text-anchor="middle" fill="#0f172a" font-size="12"><tspan x="480.0" dy="0" text-anchor="middle">vSphere VM</tspan></text></g><g><rect x="220" y="740" rx="6" ry="6" width="200" height="40" fill="#fecaca" stroke="#dc2626" stroke-width="1.5"/><text x="320.0" y="760.0" text-anchor="middle" fill="#0f172a" font-size="12"><tspan x="320.0" dy="0" text-anchor="middle">systemd as pid1</tspan></text></g><g><rect x="220" y="820" rx="6" ry="6" width="200" height="44" fill="#fecaca" stroke="#dc2626" stroke-width="1.5"/><text x="320.0" y="842.0" text-anchor="middle" fill="#0f172a" font-size="12"><tspan x="320.0" dy="0" text-anchor="middle">OSTree deployment root</tspan></text></g><line x1="320" y1="580" x2="320" y2="636" stroke="#334155" stroke-width="1.5" marker-end="url(#arrow)" /><line x1="160" y1="716" x2="270" y2="740" stroke="#334155" stroke-width="1.5" marker-end="url(#arrow)" /><line x1="480" y1="716" x2="370" y2="740" stroke="#334155" stroke-width="1.5" marker-end="url(#arrow)" /><line x1="320" y1="780" x2="320" y2="820" stroke="#334155" stroke-width="1.5" marker-end="url(#arrow)" /></svg>