<svg xmlns="http://www.w3.org/2000/svg" viewBox="0 0 1240 280" font-family="system-ui,Segoe UI,sans-serif" font-size="13">
  <defs>
    <marker id="arrow" markerWidth="10" markerHeight="10" refX="9" refY="3" orient="auto">
      <path d="M0,0 L0,6 L9,3 z" fill="#334155"/>
    </marker>
  </defs>
<rect x="12" y="20" rx="8" ry="8" width="188" height="210" fill="#f8fafc" stroke="#64748b" stroke-width="1.2" stroke-dasharray="4 3"/><text x="22" y="38" fill="#334155" font-size="12" font-weight="600">Source</text><g><rect x="28" y="48" rx="6" ry="6" width="156" height="44" fill="#e0f2fe" stroke="#0284c7" stroke-width="1.5"/><text x="106.0" y="74.2" text-anchor="middle" fill="#0f172a" font-size="12"><tspan x="106.0" dy="0" text-anchor="middle">repos/hello/</tspan><tspan x="106.0" dy="12" text-anchor="middle">repos/api/</tspan></text></g><g><rect x="28" y="100" rx="6" ry="6" width="156" height="36" fill="#e0f2fe" stroke="#0284c7" stroke-width="1.5"/><text x="106.0" y="118.0" text-anchor="middle" fill="#0f172a" font-size="12"><tspan x="106.0" dy="0" text-anchor="middle">Containerfile</tspan></text></g><g><rect x="28" y="144" rx="6" ry="6" width="156" height="36" fill="#e0f2fe" stroke="#0284c7" stroke-width="1.5"/><text x="106.0" y="162.0" text-anchor="middle" fill="#0f172a" font-size="12"><tspan x="106.0" dy="0" text-anchor="middle">base/rootfs/</tspan></text></g><rect x="216" y="20" rx="8" ry="8" width="200" height="210" fill="#f8fafc" stroke="#64748b" stroke-width="1.2" stroke-dasharray="4 3"/><text x="226" y="38" fill="#334155" font-size="12" font-weight="600">App Build</text><g><rect x="232" y="92" rx="6" ry="6" width="168" height="36" fill="#ccfbf1" stroke="#0d9488" stroke-width="1.5"/><text x="316.0" y="110.0" text-anchor="middle" fill="#0f172a" font-size="12"><tspan x="316.0" dy="0" text-anchor="middle">make apps</tspan></text></g><g><rect x="232" y="144" rx="6" ry="6" width="168" height="36" fill="#ccfbf1" stroke="#0d9488" stroke-width="1.5"/><text x="316.0" y="162.0" text-anchor="middle" fill="#0f172a" font-size="12"><tspan x="316.0" dy="0" text-anchor="middle">output/bin/</tspan></text></g><line x1="200" y1="70" x2="216" y2="110" stroke="#334155" stroke-width="1.5" marker-end="url(#arrow)" /><line x1="316" y1="128" x2="316" y2="144" stroke="#334155" stroke-width="1.5" marker-end="url(#arrow)" /><rect x="432" y="20" rx="8" ry="8" width="248" height="210" fill="#f8fafc" stroke="#64748b" stroke-width="1.2" stroke-dasharray="4 3"/><text x="442" y="38" fill="#334155" font-size="12" font-weight="600">OS Build</text><g><rect x="452" y="48" rx="6" ry="6" width="208" height="36" fill="#dcfce7" stroke="#16a34a" stroke-width="1.5"/><text x="556.0" y="66.0" text-anchor="middle" fill="#0f172a" font-size="12"><tspan x="556.0" dy="0" text-anchor="middle">OCI Image</tspan></text></g><g><rect x="448" y="140" rx="6" ry="6" width="216" height="44" fill="#dcfce7" stroke="#16a34a" stroke-width="1.5"/><text x="556.0" y="162.0" text-anchor="middle" fill="#0f172a" font-size="12"><tspan x="556.0" dy="0" text-anchor="middle">podman build</tspan></text></g><line x1="556" y1="84" x2="556" y2="140" stroke="#334155" stroke-width="1.5" marker-end="url(#arrow)" /><line x1="416" y1="110" x2="448" y2="152" stroke="#334155" stroke-width="1.5" marker-end="url(#arrow)" /><line x1="416" y1="70" x2="512" y2="140" stroke="#334155" stroke-width="1.5" marker-end="url(#arrow)" /><line x1="416" y1="162" x2="512" y2="140" stroke="#334155" stroke-width="1.5" marker-end="url(#arrow)" /><text x="482" y="128" fill="#475569" font-size="10">COPY</text><rect x="696" y="20" rx="8" ry="8" width="160" height="120" fill="#f8fafc" stroke="#64748b" stroke-width="1.2" stroke-dasharray="4 3"/><text x="706" y="38" fill="#334155" font-size="12" font-weight="600">Push</text><g><ellipse cx="776" cy="92" rx="72" ry="32" fill="#fef3c7" stroke="#d97706" stroke-width="1.5"/><text x="776" y="96" text-anchor="middle" fill="#0f172a" font-size="12">GHCR</text></g><line x1="680" y1="70" x2="696" y2="92" stroke="#334155" stroke-width="1.5" marker-end="url(#arrow)" /><rect x="872" y="20" rx="8" ry="8" width="172" height="210" fill="#f8fafc" stroke="#64748b" stroke-width="1.2" stroke-dasharray="4 3"/><text x="882" y="38" fill="#334155" font-size="12" font-weight="600">Bake</text><g><rect x="884" y="56" rx="6" ry="6" width="148" height="36" fill="#ede9fe" stroke="#7c3aed" stroke-width="1.5"/><text x="958.0" y="74.0" text-anchor="middle" fill="#0f172a" font-size="12"><tspan x="958.0" dy="0" text-anchor="middle">bootc-image-builder</tspan></text></g><g><rect x="884" y="104" rx="6" ry="6" width="68" height="32" fill="#ede9fe" stroke="#7c3aed" stroke-width="1.5"/><text x="918.0" y="120.0" text-anchor="middle" fill="#0f172a" font-size="12"><tspan x="918.0" dy="0" text-anchor="middle">AMI</tspan></text></g><g><rect x="968" y="104" rx="6" ry="6" width="64" height="32" fill="#ede9fe" stroke="#7c3aed" stroke-width="1.5"/><text x="1000.0" y="120.0" text-anchor="middle" fill="#0f172a" font-size="12"><tspan x="1000.0" dy="0" text-anchor="middle">VMDK</tspan></text></g><g><rect x="928" y="152" rx="6" ry="6" width="60" height="28" fill="#ede9fe" stroke="#7c3aed" stroke-width="1.5"/><text x="958.0" y="166.0" text-anchor="middle" fill="#0f172a" font-size="12"><tspan x="958.0" dy="0" text-anchor="middle">OVA</tspan></text></g><line x1="776" y1="92" x2="884" y2="74" stroke="#334155" stroke-width="1.5" marker-end="url(#arrow)" /><line x1="918" y1="92" x2="918" y2="104" stroke="#334155" stroke-width="1.5" marker-end="url(#arrow)" /><line x1="1000" y1="92" x2="1000" y2="104" stroke="#334155" stroke-width="1.5" marker-end="url(#arrow)" /><line x1="1000" y1="136" x2="958" y2="152" stroke="#334155" stroke-width="1.5" marker-end="url(#arrow)" /><rect x="1064" y="20" rx="8" ry="8" width="168" height="210" fill="#f8fafc" stroke="#64748b" stroke-width="1.2" stroke-dasharray="4 3"/><text x="1074" y="38" fill="#334155" font-size="12" font-weight="600">Deploy</text><g><ellipse cx="1148" cy="86" rx="72" ry="30" fill="#fecdd3" stroke="#e11d48" stroke-width="1.5"/><text x="1148" y="90" text-anchor="middle" fill="#0f172a" font-size="12">EC2 Instance</text></g><g><ellipse cx="1148" cy="170" rx="72" ry="30" fill="#fecdd3" stroke="#e11d48" stroke-width="1.5"/><text x="1148" y="174" text-anchor="middle" fill="#0f172a" font-size="12">vSphere VM</text></g><line x1="918" y1="136" x2="1112" y2="86" stroke="#334155" stroke-width="1.5" marker-end="url(#arrow)" /><line x1="958" y1="180" x2="1112" y2="170" stroke="#334155" stroke-width="1.5" marker-end="url(#arrow)" /></svg>