<svg xmlns="http://www.w3.org/2000/svg" viewBox="0 0 920 400" font-family="system-ui,Segoe UI,sans-serif" font-size="13">
  <defs>
    <marker id="arrow" markerWidth="10" markerHeight="10" refX="9" refY="3" orient="auto">
      <path d="M0,0 L0,6 L9,3 z" fill="#334155"/>
    </marker>
  </defs>
<rect x="16" y="16" rx="8" ry="8" width="420" height="160" fill="#f8fafc" stroke="#64748b" stroke-width="1.2" stroke-dasharray="4 3"/><text x="26" y="34" fill="#334155" font-size="12" font-weight="600">Source (repo)</text><g><rect x="32" y="44" rx="6" ry="6" width="388" height="32" fill="#e0f2fe" stroke="#0284c7" stroke-width="1.5"/><text x="226.0" y="60.0" text-anchor="middle" fill="#0f172a" font-size="12"><tspan x="226.0" dy="0" text-anchor="middle">bootc/libs/common/rootfs/</tspan></text></g><g><rect x="32" y="84" rx="6" ry="6" width="388" height="32" fill="#e0f2fe" stroke="#0284c7" stroke-width="1.5"/><text x="226.0" y="100.0" text-anchor="middle" fill="#0f172a" font-size="12"><tspan x="226.0" dy="0" text-anchor="middle">bootc/services/*/rootfs/</tspan></text></g><g><rect x="32" y="124" rx="6" ry="6" width="388" height="32" fill="#e0f2fe" stroke="#0284c7" stroke-width="1.5"/><text x="226.0" y="140.0" text-anchor="middle" fill="#0f172a" font-size="12"><tspan x="226.0" dy="0" text-anchor="middle">bootc/apps/*/rootfs/</tspan></text></g><rect x="16" y="200" rx="8" ry="8" width="888" height="180" fill="#f8fafc" stroke="#64748b" stroke-width="1.2" stroke-dasharray="4 3"/><text x="26" y="218" fill="#334155" font-size="12" font-weight="600">Image / VM (runtime)</text><g><rect x="48" y="232" rx="6" ry="6" width="240" height="36" fill="#f1f5f9" stroke="#475569" stroke-width="1.5"/><text x="168.0" y="250.0" text-anchor="middle" fill="#0f172a" font-size="12"><tspan x="168.0" dy="0" text-anchor="middle">/usr/libexec/testboot/*.sh</tspan></text></g><g><rect x="48" y="280" rx="6" ry="6" width="240" height="36" fill="#f1f5f9" stroke="#475569" stroke-width="1.5"/><text x="168.0" y="298.0" text-anchor="middle" fill="#0f172a" font-size="12"><tspan x="168.0" dy="0" text-anchor="middle">/usr/share/mongodb/ valkey/ nginx/</tspan></text></g><g><rect x="48" y="328" rx="6" ry="6" width="240" height="36" fill="#f1f5f9" stroke="#475569" stroke-width="1.5"/><text x="168.0" y="346.0" text-anchor="middle" fill="#0f172a" font-size="12"><tspan x="168.0" dy="0" text-anchor="middle">/etc/*.conf symlinks</tspan></text></g><g><rect x="340" y="232" rx="6" ry="6" width="240" height="36" fill="#f1f5f9" stroke="#475569" stroke-width="1.5"/><text x="460.0" y="250.0" text-anchor="middle" fill="#0f172a" font-size="12"><tspan x="460.0" dy="0" text-anchor="middle">/usr/lib/systemd/system/</tspan></text></g><g><rect x="340" y="280" rx="6" ry="6" width="240" height="36" fill="#f1f5f9" stroke="#475569" stroke-width="1.5"/><text x="460.0" y="298.0" text-anchor="middle" fill="#0f172a" font-size="12"><tspan x="460.0" dy="0" text-anchor="middle">/usr/lib/tmpfiles.d/</tspan></text></g><g><rect x="340" y="328" rx="6" ry="6" width="240" height="36" fill="#f1f5f9" stroke="#475569" stroke-width="1.5"/><text x="460.0" y="346.0" text-anchor="middle" fill="#0f172a" font-size="12"><tspan x="460.0" dy="0" text-anchor="middle">/usr/lib/sysusers.d/</tspan></text></g><g><rect x="632" y="232" rx="6" ry="6" width="240" height="36" fill="#f1f5f9" stroke="#475569" stroke-width="1.5"/><text x="752.0" y="250.0" text-anchor="middle" fill="#0f172a" font-size="12"><tspan x="752.0" dy="0" text-anchor="middle">/etc/yum.repos.d/</tspan></text></g><text x="24" y="192" fill="#475569" font-size="11">COPY / (representative flows)</text><line x1="220" y1="60" x2="168" y2="232" stroke="#334155" stroke-width="1.5" marker-end="url(#arrow)" /><line x1="220" y1="100" x2="168" y2="280" stroke="#334155" stroke-width="1.5" marker-end="url(#arrow)" /><line x1="220" y1="100" x2="168" y2="328" stroke="#334155" stroke-width="1.5" marker-end="url(#arrow)" /><line x1="220" y1="140" x2="460" y2="232" stroke="#334155" stroke-width="1.5" marker-end="url(#arrow)" /><line x1="220" y1="140" x2="460" y2="280" stroke="#334155" stroke-width="1.5" marker-end="url(#arrow)" /><line x1="220" y1="140" x2="460" y2="328" stroke="#334155" stroke-width="1.5" marker-end="url(#arrow)" /><line x1="220" y1="140" x2="752" y2="232" stroke="#334155" stroke-width="1.5" marker-end="url(#arrow)" /><path d="M 168 298 C 400 360 500 280 752 250" fill="none" stroke="#334155" stroke-width="1.5" marker-end="url(#arrow)" stroke-dasharray="6 4"/><text x="400" y="340" fill="#475569" font-size="10">ln -sf</text></svg>