<svg xmlns="http://www.w3.org/2000/svg" viewBox="0 0 520 520" font-family="system-ui,Segoe UI,sans-serif" font-size="13">
  <defs>
    <marker id="arrow" markerWidth="10" markerHeight="10" refX="9" refY="3" orient="auto">
      <path d="M0,0 L0,6 L9,3 z" fill="#334155"/>
    </marker>
  </defs>
<rect x="16" y="16" rx="8" ry="8" width="488" height="120" fill="#eff6ff" stroke="#64748b" stroke-width="1.2" stroke-dasharray="4 3"/><text x="26" y="34" fill="#334155" font-size="12" font-weight="600">READ-ONLY (composefs)</text><g><rect x="40" y="48" rx="6" ry="6" width="440" height="36" fill="#bfdbfe" stroke="#2563eb" stroke-width="1.5"/><text x="260.0" y="66.0" text-anchor="middle" fill="#0f172a" font-size="12"><tspan x="260.0" dy="0" text-anchor="middle">/usr (OS, binaries, configs)</tspan></text></g><g><rect x="40" y="92" rx="6" ry="6" width="440" height="32" fill="#bfdbfe" stroke="#2563eb" stroke-width="1.5"/><text x="260.0" y="108.0" text-anchor="middle" fill="#0f172a" font-size="12"><tspan x="260.0" dy="0" text-anchor="middle">/opt (if used)</tspan></text></g><rect x="16" y="152" rx="8" ry="8" width="488" height="100" fill="#fff7ed" stroke="#64748b" stroke-width="1.2" stroke-dasharray="4 3"/><text x="26" y="170" fill="#334155" font-size="12" font-weight="600">MUTABLE</text><g><rect x="40" y="184" rx="6" ry="6" width="440" height="32" fill="#fed7aa" stroke="#ea580c" stroke-width="1.5"/><text x="260.0" y="200.0" text-anchor="middle" fill="#0f172a" font-size="12"><tspan x="260.0" dy="0" text-anchor="middle">/etc (3-way merge on upgrade)</tspan></text></g><g><rect x="40" y="220" rx="6" ry="6" width="440" height="24" fill="#fed7aa" stroke="#ea580c" stroke-width="1.5"/><text x="260.0" y="232.0" text-anchor="middle" fill="#0f172a" font-size="11"><tspan x="260.0" dy="0" text-anchor="middle">/var (persistent, NOT rolled back)</tspan></text></g><rect x="16" y="268" rx="8" ry="8" width="488" height="72" fill="#f0fdf4" stroke="#64748b" stroke-width="1.2" stroke-dasharray="4 3"/><text x="26" y="286" fill="#334155" font-size="12" font-weight="600">Build-time</text><g><rect x="40" y="296" rx="6" ry="6" width="440" height="32" fill="#bbf7d0" stroke="#16a34a" stroke-width="1.5"/><text x="260.0" y="312.0" text-anchor="middle" fill="#0f172a" font-size="12"><tspan x="260.0" dy="0" text-anchor="middle">Everything mutable for derivation</tspan></text></g><rect x="16" y="352" rx="8" ry="8" width="488" height="152" fill="#fef2f2" stroke="#64748b" stroke-width="1.2" stroke-dasharray="4 3"/><text x="26" y="370" fill="#334155" font-size="12" font-weight="600">Runtime (deployed)</text><g><rect x="40" y="384" rx="6" ry="6" width="200" height="32" fill="#fecaca" stroke="#dc2626" stroke-width="1.5"/><text x="140.0" y="400.0" text-anchor="middle" fill="#0f172a" font-size="12"><tspan x="140.0" dy="0" text-anchor="middle">/usr</tspan></text></g><g><rect x="264" y="384" rx="6" ry="6" width="200" height="32" fill="#fecaca" stroke="#dc2626" stroke-width="1.5"/><text x="364.0" y="400.0" text-anchor="middle" fill="#0f172a" font-size="12"><tspan x="364.0" dy="0" text-anchor="middle">/opt</tspan></text></g><g><rect x="40" y="428" rx="6" ry="6" width="200" height="32" fill="#fecaca" stroke="#dc2626" stroke-width="1.5"/><text x="140.0" y="444.0" text-anchor="middle" fill="#0f172a" font-size="12"><tspan x="140.0" dy="0" text-anchor="middle">/etc</tspan></text></g><g><rect x="264" y="428" rx="6" ry="6" width="200" height="32" fill="#fecaca" stroke="#dc2626" stroke-width="1.5"/><text x="364.0" y="444.0" text-anchor="middle" fill="#0f172a" font-size="12"><tspan x="364.0" dy="0" text-anchor="middle">/var</tspan></text></g></svg>