<svg xmlns="http://www.w3.org/2000/svg" viewBox="0 0 720 260" font-family="system-ui,Segoe UI,sans-serif" font-size="13">
  <defs>
    <marker id="arrow" markerWidth="10" markerHeight="10" refX="9" refY="3" orient="auto">
      <path d="M0,0 L0,6 L9,3 z" fill="#334155"/>
    </marker>
  </defs>
<rect x="16" y="16" rx="8" ry="8" width="200" height="200" fill="#f8fafc" stroke="#64748b" stroke-width="1.2" stroke-dasharray="4 3"/><text x="26" y="34" fill="#334155" font-size="12" font-weight="600">Repository</text><g><rect x="40" y="48" rx="6" ry="6" width="152" height="36" fill="#e0f2fe" stroke="#0284c7" stroke-width="1.5"/><text x="116.0" y="66.0" text-anchor="middle" fill="#0f172a" font-size="12"><tspan x="116.0" dy="0" text-anchor="middle">repos/hello/</tspan></text></g><g><rect x="40" y="96" rx="6" ry="6" width="152" height="36" fill="#e0f2fe" stroke="#0284c7" stroke-width="1.5"/><text x="116.0" y="114.0" text-anchor="middle" fill="#0f172a" font-size="12"><tspan x="116.0" dy="0" text-anchor="middle">repos/newapp/</tspan></text></g><rect x="240" y="16" rx="8" ry="8" width="280" height="200" fill="#f8fafc" stroke="#64748b" stroke-width="1.2" stroke-dasharray="4 3"/><text x="250" y="34" fill="#334155" font-size="12" font-weight="600">Container Image</text><g><rect x="260" y="52" rx="6" ry="6" width="120" height="32" fill="#dcfce7" stroke="#16a34a" stroke-width="1.5"/><text x="320.0" y="68.0" text-anchor="middle" fill="#0f172a" font-size="12"><tspan x="320.0" dy="0" text-anchor="middle">/usr/bin/hello</tspan></text></g><g><rect x="400" y="52" rx="6" ry="6" width="104" height="32" fill="#dcfce7" stroke="#16a34a" stroke-width="1.5"/><text x="452.0" y="68.0" text-anchor="middle" fill="#0f172a" font-size="12"><tspan x="452.0" dy="0" text-anchor="middle">hello.service</tspan></text></g><g><rect x="260" y="96" rx="6" ry="6" width="120" height="32" fill="#dcfce7" stroke="#16a34a" stroke-width="1.5"/><text x="320.0" y="112.0" text-anchor="middle" fill="#0f172a" font-size="12"><tspan x="320.0" dy="0" text-anchor="middle">hello-tmpfiles.conf</tspan></text></g><g><rect x="260" y="140" rx="6" ry="6" width="120" height="32" fill="#dcfce7" stroke="#16a34a" stroke-width="1.5"/><text x="320.0" y="156.0" text-anchor="middle" fill="#0f172a" font-size="12"><tspan x="320.0" dy="0" text-anchor="middle">/usr/bin/newapp</tspan></text></g><g><rect x="400" y="140" rx="6" ry="6" width="104" height="32" fill="#dcfce7" stroke="#16a34a" stroke-width="1.5"/><text x="452.0" y="156.0" text-anchor="middle" fill="#0f172a" font-size="12"><tspan x="452.0" dy="0" text-anchor="middle">newapp.service</tspan></text></g><rect x="540" y="16" rx="8" ry="8" width="164" height="120" fill="#f8fafc" stroke="#64748b" stroke-width="1.2" stroke-dasharray="4 3"/><text x="550" y="34" fill="#334155" font-size="12" font-weight="600">Runtime</text><g><rect x="556" y="52" rx="6" ry="6" width="132" height="40" fill="#fee2e2" stroke="#dc2626" stroke-width="1.5"/><text x="622.0" y="72.0" text-anchor="middle" fill="#0f172a" font-size="12"><tspan x="622.0" dy="0" text-anchor="middle">nginx</tspan></text></g><line x1="216" y1="64" x2="260" y2="68" stroke="#334155" stroke-width="1.5" marker-end="url(#arrow)" /><line x1="216" y1="64" x2="400" y2="68" stroke="#334155" stroke-width="1.5" marker-end="url(#arrow)" /><line x1="216" y1="112" x2="260" y2="112" stroke="#334155" stroke-width="1.5" marker-end="url(#arrow)" /><line x1="216" y1="156" x2="260" y2="156" stroke="#334155" stroke-width="1.5" marker-end="url(#arrow)" /><line x1="216" y1="156" x2="400" y2="156" stroke="#334155" stroke-width="1.5" marker-end="url(#arrow)" /><line x1="452" y1="72" x2="556" y2="72" stroke="#334155" stroke-width="1.5" marker-end="url(#arrow)" /><line x1="452" y1="156" x2="556" y2="72" stroke="#334155" stroke-width="1.5" marker-end="url(#arrow)" /></svg>