<svg xmlns="http://www.w3.org/2000/svg" viewBox="0 0 560 380" font-family="system-ui,Segoe UI,sans-serif" font-size="13">
  <defs>
    <marker id="arrow" markerWidth="10" markerHeight="10" refX="9" refY="3" orient="auto">
      <path d="M0,0 L0,6 L9,3 z" fill="#334155"/>
    </marker>
  </defs>
<rect x="16" y="16" rx="8" ry="8" width="528" height="100" fill="#eff6ff" stroke="#64748b" stroke-width="1.2" stroke-dasharray="4 3"/><text x="26" y="34" fill="#334155" font-size="12" font-weight="600">Current POC</text><g><rect x="40" y="44" rx="6" ry="6" width="140" height="32" fill="#bfdbfe" stroke="#2563eb" stroke-width="1.5"/><text x="110.0" y="60.0" text-anchor="middle" fill="#0f172a" font-size="12"><tspan x="110.0" dy="0" text-anchor="middle">hello service</tspan></text></g><g><rect x="200" y="44" rx="6" ry="6" width="120" height="32" fill="#bfdbfe" stroke="#2563eb" stroke-width="1.5"/><text x="260.0" y="60.0" text-anchor="middle" fill="#0f172a" font-size="12"><tspan x="260.0" dy="0" text-anchor="middle">nginx</tspan></text></g><g><rect x="340" y="44" rx="6" ry="6" width="120" height="32" fill="#bfdbfe" stroke="#2563eb" stroke-width="1.5"/><text x="400.0" y="60.0" text-anchor="middle" fill="#0f172a" font-size="12"><tspan x="400.0" dy="0" text-anchor="middle">cloud-init</tspan></text></g><rect x="16" y="132" rx="8" ry="8" width="528" height="140" fill="#f0fdf4" stroke="#64748b" stroke-width="1.2" stroke-dasharray="4 3"/><text x="26" y="150" fill="#334155" font-size="12" font-weight="600">Full Stack</text><g><rect x="32" y="164" rx="6" ry="6" width="120" height="28" fill="#bbf7d0" stroke="#16a34a" stroke-width="1.5"/><text x="92.0" y="178.0" text-anchor="middle" fill="#0f172a" font-size="12"><tspan x="92.0" dy="0" text-anchor="middle">nginx (reverse proxy)</tspan></text></g><g><rect x="164" y="164" rx="6" ry="6" width="80" height="28" fill="#bbf7d0" stroke="#16a34a" stroke-width="1.5"/><text x="204.0" y="178.0" text-anchor="middle" fill="#0f172a" font-size="12"><tspan x="204.0" dy="0" text-anchor="middle">valkey</tspan></text></g><g><rect x="260" y="164" rx="6" ry="6" width="90" height="28" fill="#bbf7d0" stroke="#16a34a" stroke-width="1.5"/><text x="305.0" y="178.0" text-anchor="middle" fill="#0f172a" font-size="12"><tspan x="305.0" dy="0" text-anchor="middle">rabbitmq</tspan></text></g><g><rect x="32" y="204" rx="6" ry="6" width="80" height="28" fill="#bbf7d0" stroke="#16a34a" stroke-width="1.5"/><text x="72.0" y="218.0" text-anchor="middle" fill="#0f172a" font-size="12"><tspan x="72.0" dy="0" text-anchor="middle">app-api</tspan></text></g><g><rect x="124" y="204" rx="6" ry="6" width="100" height="28" fill="#bbf7d0" stroke="#16a34a" stroke-width="1.5"/><text x="174.0" y="218.0" text-anchor="middle" fill="#0f172a" font-size="12"><tspan x="174.0" dy="0" text-anchor="middle">app-worker</tspan></text></g><g><rect x="236" y="204" rx="6" ry="6" width="80" height="28" fill="#bbf7d0" stroke="#16a34a" stroke-width="1.5"/><text x="276.0" y="218.0" text-anchor="middle" fill="#0f172a" font-size="12"><tspan x="276.0" dy="0" text-anchor="middle">app-web</tspan></text></g><rect x="16" y="288" rx="8" ry="8" width="528" height="76" fill="#faf5ff" stroke="#64748b" stroke-width="1.2" stroke-dasharray="4 3"/><text x="26" y="306" fill="#334155" font-size="12" font-weight="600">Deployment Targets</text><g><rect x="40" y="316" rx="6" ry="6" width="100" height="32" fill="#e9d5ff" stroke="#7c3aed" stroke-width="1.5"/><text x="90.0" y="332.0" text-anchor="middle" fill="#0f172a" font-size="12"><tspan x="90.0" dy="0" text-anchor="middle">AWS AMI</tspan></text></g><g><rect x="156" y="316" rx="6" ry="6" width="110" height="32" fill="#e9d5ff" stroke="#7c3aed" stroke-width="1.5"/><text x="211.0" y="332.0" text-anchor="middle" fill="#0f172a" font-size="12"><tspan x="211.0" dy="0" text-anchor="middle">VMware OVA</tspan></text></g><g><rect x="282" y="316" rx="6" ry="6" width="90" height="32" fill="#e9d5ff" stroke="#7c3aed" stroke-width="1.5"/><text x="327.0" y="332.0" text-anchor="middle" fill="#0f172a" font-size="12"><tspan x="327.0" dy="0" text-anchor="middle">QCOW2</tspan></text></g><g><rect x="388" y="316" rx="6" ry="6" width="80" height="32" fill="#e9d5ff" stroke="#7c3aed" stroke-width="1.5"/><text x="428.0" y="332.0" text-anchor="middle" fill="#0f172a" font-size="12"><tspan x="428.0" dy="0" text-anchor="middle">ISO</tspan></text></g><line x1="280" y1="116" x2="280" y2="132" stroke="#334155" stroke-width="1.5" marker-end="url(#arrow)" /><line x1="280" y1="272" x2="280" y2="288" stroke="#334155" stroke-width="1.5" marker-end="url(#arrow)" /></svg>